REM MD5 838a189c319e89223c564529b0bb4774
FILE "NFL Blitz 2000 (Europe).bin" BINARY
  TRACK 01 MODE2/2352
    INDEX 01 00:00:00
  TRACK 02 AUDIO
    INDEX 00 24:02:30
    INDEX 01 24:04:30
  TRACK 03 AUDIO
    INDEX 00 26:37:10
    INDEX 01 26:39:10
REM LEADOUT 29:39:25
